<mxfile host="app.diagrams.net" modified="2023-12-15T13:57:43.287Z" agent="Mozilla/5.0 (Windows NT 10.0; Win64; x64) AppleWebKit/537.36 (KHTML, like Gecko) Chrome/120.0.0.0 Safari/537.36" version="21.8.2" etag="W9S1I7bcyAcRWzARtnx3" type="github">
  <diagram name="Page-1" id="xunfRfEgAfMaH7U0hkVy">
    <mxGraphModel>
      <root>
        <mxCell id="0" />
        <mxCell id="1" parent="0" />
      </root>
    </mxGraphModel>
  </diagram>
</mxfile>
